Coordinates
version=1
nRows=24
nColumns=22
inDegrees=yes

Units are S.I. units (second, meters, Newtons, ...)
If the header above contains a line with 'inDegrees', this indicates whether rotational values are in degrees (yes) or radians (no).

endheader
time	pelvis_tilt	pelvis_list	pelvis_rotation	pelvis_tx	pelvis_ty	pelvis_tz	hip_flexion_r	hip_adduction_r	hip_rotation_r	knee_angle_r	ankle_angle_r	subtalar_angle_r	hip_flexion_l	hip_adduction_l	hip_rotation_l	knee_angle_l	ankle_angle_l	subtalar_angle_l	lumbar_extension	lumbar_bending	lumbar_rotation
      3.75000000	      2.36843531	      6.15944467	    151.39554154	      0.54436941	      1.07064032	     -0.71702102	      0.62212939	      3.27924721	     -8.55631243	    -14.09956837	     11.74005832	      2.70626050	     21.80711736	     -1.35325934	      4.73762325	    -58.98899539	      4.21396886	     -5.34715840	     -7.02023257	      2.25918109	     -0.89813290
      3.76000000	      2.10347823	      5.90351896	    152.00176116	      0.53758798	      1.07059729	     -0.72025270	      0.13386745	      2.94049530	     -8.94879875	    -14.26749544	     12.13541023	      2.63855940	     22.37495678	     -1.18858849	      3.73980328	    -57.24008938	      4.91074823	     -5.90614069	     -7.17237772	      1.87707300	     -0.57372983
      3.77000000	      1.86819241	      5.64431192	    152.58351424	      0.53074447	      1.07040912	     -0.72338699	     -0.32236264	      2.60900271	     -9.33209424	    -14.45654583	     12.53571880	      2.58162065	     22.90869734	     -1.05877175	      2.67082604	    -55.38157906	      5.53995144	     -6.20554308	     -7.29482065	      1.50705184	     -0.24951621
      3.78000000	      1.62298695	      5.43280020	    153.14819197	      0.52381294	      1.07015933	     -0.72644233	     -0.83523796	      2.32091519	     -9.67422289	    -14.61739321	     12.91531139	      2.52993395	     23.34463908	     -0.99809158	      1.52531211	    -53.43172273	      6.17364815	     -6.40665492	     -7.45541437	      1.18235934	      0.03226009
      3.79000000	      1.43071557	      5.20962323	    153.67838731	      0.51683927	      1.06971091	     -0.72940549	     -1.27714963	      2.03934944	    -10.00608380	    -14.81978643	     13.30864982	      2.49497861	     23.78696703	     -0.98111261	      0.28772902	    -51.42543021	      6.74830166	     -6.40455402	     -7.55725715	      0.87204441	      0.31067668
      3.80000000	      1.24941076	      4.99927663	    154.18182395	      0.50977470	      1.06913766	     -0.73229091	     -1.72943123	      1.77392883	    -10.29051183	    -15.01063093	     13.72140937	      2.47386720	     24.17686546	     -1.00578124	     -1.03369554	    -49.37241424	      7.29696002	     -6.31374684	     -7.65187549	      0.57976671	      0.56479291
      3.81000000	      1.09051577	      4.78785870	    154.65339796	      0.50261297	      1.06841692	     -0.73510048	     -2.17326967	      1.51475695	    -10.54036037	    -15.19130183	     14.16459520	      2.46972570	     24.53269786	     -1.05666537	     -2.42997286	    -47.28780608	      7.78248491	     -6.16703058	     -7.71807282	      0.29206824	      0.82349453
      3.82000000	      0.88540789	      4.60097937	    155.08037748	      0.49536693	      1.06767057	     -0.73782954	     -2.66242397	      1.24697683	    -10.78116810	    -15.40342161	     14.57460354	      2.49775156	     24.77654451	     -1.14190631	     -3.94540888	    -45.18263256	      8.14458577	     -5.95905157	     -7.84737301	      0.00805933	      1.07693040
      3.83000000	      0.72707721	      4.38958357	    155.46619629	      0.48809217	      1.06671591	     -0.74046595	     -3.08826932	      0.97173732	    -10.97831777	    -15.63534745	     15.05080638	      2.54583589	     25.03280192	     -1.23235014	     -5.52100783	    -43.07872447	      8.38081575	     -5.78289729	     -7.92204220	     -0.28672837	      1.31680227
      3.84000000	      0.59566740	      4.16452045	    155.81559551	      0.48078022	      1.06559512	     -0.74298828	     -3.46783966	      0.68692518	    -11.14252539	    -15.90134252	     15.55705884	      2.60723616	     25.27937412	     -1.32500289	     -7.15134704	    -40.98600550	      8.46251156	     -5.63960627	     -7.96906768	     -0.58362467	      1.52406104
      3.85000000	      0.42094264	      3.97119476	    156.14418137	      0.47336045	      1.06445768	     -0.74540077	     -3.91339148	      0.40604804	    -11.33906394	    -16.15728042	     16.05908051	      2.72074656	     25.41785252	     -1.41914375	     -8.79700531	    -38.89733558	      8.40354202	     -5.52032869	     -8.07843450	     -0.87289580	      1.75049339
      3.86000000	      0.28225730	      3.77103133	    156.46326447	      0.46586830	      1.06317133	     -0.74765494	     -4.31397891	      0.12649414	    -11.54322099	    -16.43542143	     16.56352861	      2.84458704	     25.55738827	     -1.49444609	    -10.40883950	    -36.83058255	      8.20688566	     -5.44804411	     -8.15258661	     -1.14824682	      1.92327541
      3.87000000	      0.22725034	      3.55088859	    156.78597410	      0.45827122	      1.06168950	     -0.74973734	     -4.62322823	     -0.14499584	    -11.78778222	    -16.72714955	     17.06403658	      2.92964777	     25.75457259	     -1.53702107	    -11.91242389	    -34.79213779	      7.87096211	     -5.39306882	     -8.12727443	     -1.40527591	      2.06388273
      3.88000000	      0.09618618	      3.37152211	    157.09764637	      0.45051872	      1.06032318	     -0.75169067	     -5.04300072	     -0.41617877	    -12.03346935	    -16.99734763	     17.48114628	      3.09797098	     25.80063871	     -1.54953412	    -13.32892399	    -32.75102277	      7.49522055	     -5.43519740	     -8.20145495	     -1.64894055	      2.14933069
      3.89000000	      0.01813354	      3.19859315	    157.41196288	      0.44262868	      1.05889087	     -0.75350285	     -5.42657959	     -0.66812722	    -12.32937354	    -17.25460092	     17.84695414	      3.28283696	     25.85593593	     -1.52686466	    -14.53549052	    -30.72856442	      7.03280014	     -5.55136614	     -8.21360053	     -1.86685930	      2.24136887
      3.90000000	      0.04186362	      2.99103974	    157.71114405	      0.43463353	      1.05732211	     -0.75516515	     -5.69405150	     -0.92282380	    -12.60187910	    -17.52307698	     18.16797501	      3.41005029	     25.98343358	     -1.44910414	    -15.49933400	    -28.72259619	      6.57523781	     -5.65392417	     -8.09732545	     -2.07397231	      2.30491609
      3.91000000	      0.00545743	      2.82085564	    157.97278539	      0.42647708	      1.05592723	     -0.75679444	     -6.05292072	     -1.17848965	    -12.85487389	    -17.76969882	     18.38403212	      3.69051017	     25.97586101	     -1.35908165	    -16.31664889	    -26.72946126	      6.17481178	     -5.96975550	     -8.05002896	     -2.27750592	      2.35123184
      3.92000000	      0.05535077	      2.62570551	    158.19348259	      0.41821784	      1.05446566	     -0.75836329	     -6.30681123	     -1.43876121	    -13.05520076	    -18.03951884	     18.57060938	      3.94413736	     26.01218364	     -1.23961876	    -16.88057144	    -24.76218306	      5.85409473	     -6.24794249	     -7.88784936	     -2.48177197	      2.41664700
      3.93000000	      0.12942079	      2.42930501	    158.35760393	      0.40982758	      1.05306062	     -0.75994068	     -6.52969364	     -1.70762999	    -13.20119685	    -18.32435788	     18.69427170	      4.22603980	     26.01933569	     -1.12355060	    -17.28397515	    -22.84534106	      5.62589149	     -6.52831531	     -7.68416575	     -2.69347658	      2.50067734
      3.94000000	      0.20496507	      2.23600509	    158.45665257	      0.40126827	      1.05176837	     -0.76157637	     -6.75211491	     -1.98705254	    -13.26417143	    -18.61297271	     18.73327330	      4.57515419	     25.96731246	     -1.02325234	    -17.56659790	    -20.99611963	      5.49233954	     -6.82727479	     -7.45697805	     -2.92277592	      2.60797319
      3.95000000	      0.27852300	      2.04221168	    158.48334060	      0.39253133	      1.05058447	     -0.76326899	     -6.96181865	     -2.28771064	    -13.25044476	    -18.92972282	     18.72250067	      4.94562966	     25.86025524	     -0.95042162	    -17.78307129	    -19.25090596	      5.45251452	     -7.09053746	     -7.20997646	     -3.17184363	      2.75583576
      3.96000000	      0.37467416	      1.83602139	    158.45067930	      0.38357252	      1.04948611	     -0.76503236	     -7.14228078	     -2.60110955	    -13.13593191	    -19.25252188	     18.60153361	      5.24229824	     25.73848301	     -0.91208066	    -17.98347656	    -17.65512487	      5.44903094	     -7.25899346	     -6.90487351	     -3.44157268	      2.90763009
      3.97000000	      0.39365879	      1.65403161	    158.34070210	      0.37433359	      1.04861547	     -0.76687751	     -7.39867472	     -2.94280651	    -12.93240748	    -19.59888049	     18.43911506	      5.69642822	     25.48711081	     -0.91924126	    -18.25062908	    -16.24189885	      5.51752372	     -7.50425430	     -6.65899351	     -3.73414450	      3.12540897
      3.98000000	      0.33130195	      1.52762834	    158.22743733	      0.36477556	      1.04796832	     -0.76866513	     -7.75357440	     -3.27884848	    -12.71633669	    -19.97019269	     18.19839911	      6.34718034	     25.12226361	     -0.96990015	    -18.54692855	    -15.07549913	      5.63344744	     -7.83143475	     -6.50055595	     -3.99919540	      3.31099793
